<svg xmlns="http://www.w3.org/2000/svg" width="281.18" height="61.83" viewBox="0 0 281.18 61.83"><defs><style>.a{fill:#ffe100;}.a,.b,.c,.d{fill-rule:evenodd;}.b{fill:#ffbe00;}.c{fill:#d20a1c;}.d{fill:#da4419;}.e{fill:#191817;}</style></defs><g transform="translate(-16.418 -56.117)"><path class="a" d="M192.343,89.565l16.112-15.452h0V58.659H192.342L176.231,74.112Z" transform="translate(-114.331 -1.819)"/><path class="b" d="M195.026,164.778l16.112,15.452h0v15.453H195.026l-16.112-15.452Z" transform="translate(-116.251 -77.737)"/><path class="c" d="M30.382,117.46,16.418,130.852l14.119,13.541,13.923-13.431Z" transform="translate(0 -43.885)"/><path class="d" d="M97.91,71.638,114.022,87.09,82.165,117.821,65.686,118V56.185l16.479.174Z" transform="translate(-35.246 -0.049)"/><g transform="translate(103.517 109.711)"><path class="e" d="M324.882,252.876v-6.791h-2.419v-1.171h6.37v1.171H326.4v6.791Z" transform="translate(-322.463 -244.776)"/><path class="e" d="M380.061,252.876v-7.963h5.421v1.171h-3.9v2.184h3.546v1.138h-3.546v2.3h3.9v1.172Z" transform="translate(-363.669 -244.776)"/><path class="e" d="M438.482,252.669a4.264,4.264,0,0,1-2.159-.518,3.518,3.518,0,0,1-1.388-1.445,4.99,4.99,0,0,1,0-4.294,3.551,3.551,0,0,1,1.388-1.456,4.231,4.231,0,0,1,2.159-.523,3.991,3.991,0,0,1,2.449.711,3.083,3.083,0,0,1,1.193,2h-1.673a1.708,1.708,0,0,0-.658-1.018,2.207,2.207,0,0,0-1.334-.369,2.264,2.264,0,0,0-1.8.75,3.566,3.566,0,0,0,0,4.113,2.274,2.274,0,0,0,1.8.745,2.309,2.309,0,0,0,1.334-.347,1.6,1.6,0,0,0,.658-.961h1.673a2.982,2.982,0,0,1-1.193,1.922A4.059,4.059,0,0,1,438.482,252.669Z" transform="translate(-402.579 -244.433)"/><path class="e" d="M497.383,252.876v-7.963H498.9v3.31h3.725v-3.31h1.518v7.963h-1.518v-3.47H498.9v3.47Z" transform="translate(-447.602 -244.776)"/><path class="e" d="M558.066,252.876v-7.963h1.518l3.9,5.608v-5.608H565v7.963h-1.519l-3.9-5.6v5.6Z" transform="translate(-491.015 -244.776)"/><path class="e" d="M622.577,252.669a4.367,4.367,0,0,1-2.176-.523,3.781,3.781,0,0,1-1.46-1.451,4.626,4.626,0,0,1,0-4.289,3.781,3.781,0,0,1,1.46-1.451,4.777,4.777,0,0,1,4.347,0,3.731,3.731,0,0,1,1.459,1.451,4.663,4.663,0,0,1,0,4.289,3.731,3.731,0,0,1-1.459,1.451A4.38,4.38,0,0,1,622.577,252.669Zm0-1.308a2.473,2.473,0,0,0,1.892-.751,3.357,3.357,0,0,0,0-4.118,2.765,2.765,0,0,0-3.789,0,3.332,3.332,0,0,0,0,4.118A2.491,2.491,0,0,0,622.577,251.361Z" transform="translate(-534.188 -244.433)"/><path class="e" d="M683.6,252.876v-7.963h1.518v6.825h3.677v1.138Z" transform="translate(-580.819 -244.776)"/><path class="e" d="M738.4,252.669a4.373,4.373,0,0,1-2.177-.523,3.777,3.777,0,0,1-1.458-1.451,4.617,4.617,0,0,1,0-4.289,3.777,3.777,0,0,1,1.458-1.451,4.777,4.777,0,0,1,4.347,0,3.733,3.733,0,0,1,1.46,1.451,4.672,4.672,0,0,1,0,4.289,3.733,3.733,0,0,1-1.46,1.451A4.378,4.378,0,0,1,738.4,252.669Zm0-1.308a2.471,2.471,0,0,0,1.891-.751,3.355,3.355,0,0,0,0-4.118,2.765,2.765,0,0,0-3.789,0,3.335,3.335,0,0,0,0,4.118A2.491,2.491,0,0,0,738.4,251.361Z" transform="translate(-617.046 -244.433)"/><path class="e" d="M802.36,252.669a4,4,0,0,1-2.052-.512,3.534,3.534,0,0,1-1.364-1.428,4.917,4.917,0,0,1,.017-4.3,3.636,3.636,0,0,1,1.436-1.467,4.4,4.4,0,0,1,2.212-.529,4.124,4.124,0,0,1,2.419.671,3.052,3.052,0,0,1,1.246,1.854h-1.7a1.613,1.613,0,0,0-.687-.87,2.378,2.378,0,0,0-1.281-.313,2.444,2.444,0,0,0-1.922.756,3,3,0,0,0-.676,2.076,2.893,2.893,0,0,0,.67,2.042,2.363,2.363,0,0,0,1.821.722,2.281,2.281,0,0,0,1.7-.586,2.579,2.579,0,0,0,.694-1.541h-2.1v-1.092h3.629v4.379h-1.4l-.118-1.046a2.752,2.752,0,0,1-1.009.876A3.4,3.4,0,0,1,802.36,252.669Z" transform="translate(-662.992 -244.433)"/><path class="e" d="M862.893,252.876v-7.963h1.518v7.963Z" transform="translate(-709.089 -244.776)"/><path class="e" d="M905.151,252.876v-7.963h5.421v1.171h-3.9v2.184h3.546v1.138H906.67v2.3h3.9v1.172Z" transform="translate(-739.321 -244.776)"/><path class="e" d="M962.589,252.669a4.044,4.044,0,0,1-1.612-.3,2.567,2.567,0,0,1-1.1-.865,2.35,2.35,0,0,1-.415-1.371h1.6a1.332,1.332,0,0,0,.421.939,1.782,1.782,0,0,0,2.058.1.9.9,0,0,0,.355-.745.954.954,0,0,0-.314-.762,2.409,2.409,0,0,0-.836-.443l-1.115-.364a3.708,3.708,0,0,1-1.465-.819,1.79,1.79,0,0,1-.5-1.331,1.97,1.97,0,0,1,.35-1.212,2.358,2.358,0,0,1,.99-.785,3.907,3.907,0,0,1,2.912.006,2.379,2.379,0,0,1,1,.8,2.188,2.188,0,0,1,.385,1.217h-1.625a1.066,1.066,0,0,0-.338-.745,1.232,1.232,0,0,0-.908-.325,1.335,1.335,0,0,0-.836.233.822.822,0,0,0-.338.711.8.8,0,0,0,.261.631,2.1,2.1,0,0,0,.711.392q.451.16,1.032.342a7.139,7.139,0,0,1,1.127.478,2.286,2.286,0,0,1,.818.722,2,2,0,0,1,.308,1.154,2.156,2.156,0,0,1-.332,1.161,2.353,2.353,0,0,1-.984.859A3.574,3.574,0,0,1,962.589,252.669Z" transform="translate(-778.173 -244.433)"/></g><g transform="translate(103.198 56.117)"><path class="e" d="M321.342,102.462V56.117h7V78.431l17.29-18.023h8.207L337.612,77.17l16.6,25.293h-8.081L332.85,82.036l-4.51,4.686v15.741Z" transform="translate(-321.342 -56.117)"/><path class="e" d="M445.2,110.227V66.971h6.64V85.235a10.963,10.963,0,0,1,4.354-4.055,13.017,13.017,0,0,1,6.171-1.472q5.574,0,8.77,3.364t3.195,10.033v17.122h-6.578V93.766q0-8.651-7.2-8.651a8.366,8.366,0,0,0-6.233,2.523q-2.475,2.523-2.474,7.209v15.38Z" transform="translate(-409.952 -63.882)"/><path class="e" d="M571.911,142.965A14.755,14.755,0,0,1,565.4,141.7a8.869,8.869,0,0,1-3.821-3.335,8.6,8.6,0,0,1-1.253-4.536,8,8,0,0,1,3.508-6.849q3.507-2.523,10.023-2.523H582v-.541a6.61,6.61,0,0,0-1.973-5.227,7.43,7.43,0,0,0-5.105-1.742,8.755,8.755,0,0,0-4.792,1.291,5.392,5.392,0,0,0-2.474,3.815h-6.64A9.787,9.787,0,0,1,563.3,116.5a12.757,12.757,0,0,1,5.011-3.545,17.6,17.6,0,0,1,6.671-1.232q6.515,0,10.086,3.274a11.508,11.508,0,0,1,3.571,8.922v18.324h-5.764l-.564-5.107a11.484,11.484,0,0,1-3.822,4.145A11.607,11.607,0,0,1,571.911,142.965Zm1.316-5.167a8.005,8.005,0,0,0,4.542-1.231,8.432,8.432,0,0,0,2.882-3.274,12.746,12.746,0,0,0,1.284-4.506h-7.392q-3.947,0-5.607,1.322a4.062,4.062,0,0,0-1.66,3.3,3.769,3.769,0,0,0,1.6,3.214A7.218,7.218,0,0,0,573.227,137.8Z" transform="translate(-492.31 -95.899)"/><path class="e" d="M676.1,102.462V56.117h6.64v46.345Z" transform="translate(-575.138 -56.117)"/><path class="e" d="M729.62,142.965a16.522,16.522,0,0,1-8.112-1.952,14.164,14.164,0,0,1-5.544-5.437,15.97,15.97,0,0,1-2-8.11,16.646,16.646,0,0,1,1.973-8.231,14.054,14.054,0,0,1,5.513-5.527,16.575,16.575,0,0,1,8.238-1.982,15.646,15.646,0,0,1,7.956,1.953,14,14,0,0,1,7.141,12.346q0,.6-.032,1.291t-.094,1.532h-24.18a9.04,9.04,0,0,0,2.976,6.578,9.263,9.263,0,0,0,6.17,2.253,8.558,8.558,0,0,0,4.729-1.231,7.534,7.534,0,0,0,2.85-3.334h6.641a13.52,13.52,0,0,1-4.98,7.029A14.858,14.858,0,0,1,729.62,142.965Zm0-26.014a9.664,9.664,0,0,0-5.889,1.892,8.186,8.186,0,0,0-3.132,5.677h17.54a7.473,7.473,0,0,0-2.568-5.527A8.82,8.82,0,0,0,729.62,116.951Z" transform="translate(-602.222 -95.899)"/><path class="e" d="M847.162,142.965a16.522,16.522,0,0,1-8.112-1.952,14.164,14.164,0,0,1-5.544-5.437,15.966,15.966,0,0,1-2-8.11,16.648,16.648,0,0,1,1.973-8.231,14.055,14.055,0,0,1,5.513-5.527,16.575,16.575,0,0,1,8.238-1.982,15.647,15.647,0,0,1,7.956,1.953,14,14,0,0,1,7.141,12.346q0,.6-.031,1.291t-.094,1.532h-24.18a9.04,9.04,0,0,0,2.975,6.578,9.263,9.263,0,0,0,6.17,2.253,8.557,8.557,0,0,0,4.729-1.231,7.535,7.535,0,0,0,2.85-3.334h6.64a13.519,13.519,0,0,1-4.98,7.029A14.857,14.857,0,0,1,847.162,142.965Zm0-26.014a9.665,9.665,0,0,0-5.889,1.892,8.187,8.187,0,0,0-3.132,5.677h17.54a7.475,7.475,0,0,0-2.568-5.527A8.82,8.82,0,0,0,847.162,116.951Z" transform="translate(-686.312 -95.899)"/><path class="e" d="M951.828,110.227V85.775H949.17V80.429h2.658V76.1q0-4.867,2.537-7t7.173-2.132H964.8v5.407H962.54a4.551,4.551,0,0,0-3.132.871,3.834,3.834,0,0,0-.94,2.914v4.266h6.425v5.347h-6.425v24.452Z" transform="translate(-770.493 -63.882)"/></g></g></svg>